<svg width="470" height="154" viewBox="0 0 470 154" fill="none" xmlns="http://www.w3.org/2000/svg">
<path d="M249.53 0H470L407.607 154H0V74.3707V0H249.53Z" fill="white"/>
<g clip-path="url(#clip0)">
<path d="M89.46 67.5C88.56 61.28 86.26 56.37 82.53 52.73C77.65 47.9767 71.3733 45.6033 63.7 45.61C55.2333 45.61 48.5067 48.4067 43.52 54C38.5333 59.5933 36.0267 67.2433 36 76.95C36 86.73 38.48 94.4167 43.44 100.01C48.4 105.603 55.1533 108.403 63.7 108.41C72.6867 108.41 79.8067 105.28 85.06 99.02L76.37 90.1C74.924 92.0892 73.0138 93.6948 70.8055 94.7771C68.5973 95.8594 66.158 96.3857 63.7 96.31C60.0894 96.3761 56.6004 95.0057 54 92.5C51.26 89.797 49.6877 86.1283 49.62 82.28H89.4C89.4 82.13 89.4 81.98 89.46 81.83C89.7436 79.1729 89.8805 76.5022 89.87 73.83C89.8862 71.7129 89.7492 69.5973 89.46 67.5V67.5ZM49.74 70.85C50.04 66.39 51.48 63.08 54 60.92C56.7385 58.7106 60.1839 57.5669 63.7 57.7C65.2769 57.6621 66.8456 57.9379 68.3151 58.5113C69.7845 59.0846 71.1254 59.9442 72.26 61.04C74.62 63.26 75.94 66.54 76.26 70.85H49.74Z" fill="#509BD5"/>
<path d="M129.89 81.5C129.89 90.6533 125.86 95.23 117.8 95.23C110.293 95.23 106.537 90.5633 106.53 81.23V47.03H92.8V83.77C92.8 92.29 94.8 98.53 98.8 102.49C102.8 106.45 107.923 108.423 114.17 108.41C120.897 108.41 126.14 106.023 129.9 101.25V107H143.63V47H129.89V81.5Z" fill="#509BD5"/>
<path d="M188.27 50.06L188.07 50.28V50.33L187.75 50.68C185.449 53.3293 183.601 56.3396 182.28 59.59C182.2 59.79 182.12 59.97 182.05 60.17C180.033 59.4283 177.899 59.0557 175.75 59.07C174.263 59.0391 172.785 59.3144 171.409 59.8787C170.033 60.4429 168.787 61.2841 167.75 62.35C165.56 64.55 164.47 68.22 164.47 73.35V107H150.67V47H164.4V53.22C166.807 48.14 170.913 45.5966 176.72 45.59C180.95 45.59 183.88 46.59 187.87 49.7C188 49.83 188.14 49.95 188.27 50.06Z" fill="#509BD5"/>
<path d="M231.7 54C226.7 48.41 220.01 45.61 211.56 45.61C204.56 45.61 198.82 47.53 194.25 51.31C193.38 52.0214 192.567 52.8005 191.82 53.64C191.71 53.77 191.59 53.87 191.49 54C189.531 56.2424 187.962 58.798 186.85 61.56C186.241 63.0081 185.749 64.5029 185.38 66.03C184.492 69.6282 184.062 73.3241 184.1 77.03C184.1 86.81 186.59 94.49 191.49 100.03C196.39 105.57 203.12 108.37 211.56 108.37C220 108.37 226.83 105.58 231.76 100.03C236.69 94.48 239.15 86.8 239.15 77.03C239.15 67.26 236.66 59.6 231.7 54ZM221.73 90.5C220.549 92.0628 219.007 93.3166 217.236 94.1541C215.465 94.9917 213.517 95.3883 211.56 95.31C209.622 95.3695 207.699 94.9563 205.957 94.1061C204.214 93.2558 202.705 91.9941 201.56 90.43C199.1 87.19 197.87 82.76 197.87 77.11C197.87 71.46 199.12 67.01 201.64 63.68C202.76 62.0932 204.254 60.8069 205.989 59.9348C207.725 59.0628 209.648 58.6318 211.59 58.68C213.56 58.6032 215.518 59.0129 217.292 59.8727C219.065 60.7326 220.6 62.0162 221.76 63.61C224.22 66.89 225.447 71.3867 225.44 77.1C225.433 82.8133 224.197 87.28 221.73 90.5Z" fill="#509BD5"/>
<path d="M306.52 38.81C307.592 38.8302 308.657 38.6273 309.647 38.2142C310.637 37.801 311.53 37.1866 312.27 36.41C313.031 35.6488 313.63 34.7419 314.032 33.7435C314.434 32.7452 314.631 31.6761 314.61 30.6C314.633 29.5326 314.437 28.4718 314.035 27.4829C313.633 26.494 313.032 25.5979 312.27 24.85C311.523 24.0858 310.628 23.483 309.639 23.0788C308.65 22.6746 307.588 22.4776 306.52 22.5C305.443 22.4805 304.374 22.6786 303.375 23.0824C302.377 23.4862 301.47 24.0874 300.71 24.85C299.929 25.5871 299.311 26.4795 298.896 27.4698C298.481 28.4602 298.278 29.5264 298.3 30.6C298.283 31.6818 298.488 32.7555 298.903 33.7549C299.317 34.7542 299.932 35.6579 300.71 36.41C301.463 37.1854 302.367 37.7984 303.367 38.2111C304.366 38.6239 305.439 38.8277 306.52 38.81V38.81Z" fill="#1F3D8A" stroke="white" stroke-miterlimit="10"/>
<path d="M404.63 47.03L372.94 129.77H358.74L368.01 106.06L350.06 59L359.33 47.03L375.06 89.28L390.78 47.03H404.63Z" fill="#509BD5"/>
<path d="M353 26.25V37.5C350.304 36.2817 347.396 35.6023 344.44 35.5C341.44 35.5 339.86 37.08 339.86 40.2V107H326.15V37.63C326.15 28.1566 330.883 23.4233 340.35 23.43C344.731 23.3448 349.069 24.3119 353 26.25V26.25Z" fill="#509BD5"/>
<path d="M359.33 47.02L350.06 59.02H313.32V107.02H299.59V77.07C299.59 69.32 298.28 62.65 295.73 57.22C294.72 55.0995 293.469 53.1029 292 51.27C290.784 49.7197 289.392 48.3168 287.85 47.09C287.85 47.09 287.85 47.04 287.76 47.02H359.33Z" fill="#1F3D8A" stroke="white" stroke-miterlimit="10"/>
<path d="M291.91 59.02C291.054 57.1878 289.99 55.4598 288.74 53.87C287.843 52.7479 286.838 51.7163 285.74 50.79C285.59 50.65 285.42 50.51 285.25 50.37C283.476 48.9277 281.471 47.7951 279.32 47.02C276.558 46.0502 273.647 45.5729 270.72 45.61C264.86 45.61 260.287 47.61 257 51.61V47.02H243.25V130.58L257 124.25V102.18C260.28 106.327 264.82 108.403 270.62 108.41C275.941 108.568 281.139 106.792 285.25 103.41C285.425 103.277 285.589 103.13 285.74 102.97C285.984 102.779 286.214 102.572 286.43 102.35C287.201 101.639 287.917 100.871 288.57 100.05C293.117 94.4567 295.387 86.79 295.38 77.05C295.373 69.9034 294.217 63.8934 291.91 59.02ZM278.23 90.56C277.149 92.0898 275.7 93.3225 274.017 94.144C272.334 94.9655 270.471 95.3493 268.6 95.26C266.327 95.3493 264.068 94.8571 262.038 93.8299C260.009 92.8027 258.274 91.2746 257 89.39V64.5C259.667 60.5934 263.537 58.6367 268.61 58.63C270.512 58.5479 272.403 58.9665 274.093 59.8439C275.783 60.7213 277.213 62.0268 278.24 63.63C280.52 67.0034 281.657 71.46 281.65 77C281.64 82.94 280.51 87.43 278.23 90.56Z" fill="#509BD5"/>
</g>
<defs>
<clipPath id="clip0">
<rect width="368.63" height="108.58" fill="white" transform="translate(36 22)"/>
</clipPath>
</defs>
</svg>
