<?xml version="1.0" encoding="UTF-8"?>
<svg viewBox="0 0 237.5192 235.95607" xmlns="http://www.w3.org/2000/svg">
 <g transform="translate(-225.24 -436.38)">
  <path d="m344 438.38-3.7684 11.598h-12.22l9.8783 7.1709-3.7684 11.634 9.8782-7.1709 9.8782 7.1709-3.7684-11.634 9.8417-7.1709h-12.183l-3.7684-11.598zm-50.379 13.5-3.7684 11.634h-12.22l9.8783 7.1709-3.7684 11.598 9.8417-7.1709 9.8782 7.1709-3.7684-11.598 9.8783-7.1709h-12.183l-3.7684-11.634zm100.76 0-3.7684 11.634h-12.22l9.8782 7.1709-3.7684 11.598 9.8783-7.1709 9.8782 7.1709-3.7684-11.598 9.8783-7.1709h-12.22l-3.7684-11.634zm-137.67 36.915-3.7684 11.598h-12.183l9.8417 7.1709-3.7684 11.598 9.8783-7.1709 9.8783 7.1709-3.7684-11.598 9.8783-7.1709h-12.22l-3.7684-11.598zm174.55 0-3.7684 11.598h-12.183l9.8417 7.1343-3.7684 11.634 9.8782-7.1709 9.8783 7.1709-3.7684-11.598 9.8782-7.1709h-12.22l-3.7684-11.598zm-188.05 50.379-3.7684 11.598h-12.183l9.8417 7.1709-3.7684 11.598 9.9148-7.1709 9.8417 7.1709-3.7684-11.598 9.8782-7.1709h-12.22l-3.7684-11.598zm201.55 0-3.7684 11.598h-12.183l9.8417 7.1709-3.7684 11.598 9.8782-7.1709 9.8783 7.1709-3.7684-11.561 9.8782-7.2075h-12.22l-3.7684-11.598zm-188.05 50.379-3.7684 11.598h-12.183l9.8417 7.1709-3.7684 11.634 9.8783-7.1709 9.8783 7.1709-3.7684-11.634 9.8783-7.1709h-12.22l-3.7684-11.598zm174.55 0-3.7684 11.598h-12.183l9.8417 7.1709-3.7684 11.634 9.8782-7.1709 9.8783 7.1709-3.7684-11.634 9.8782-7.1709h-12.22l-3.7684-11.598zm-137.64 36.879-3.7684 11.634h-12.22l9.8783 7.1709-3.7684 11.598 9.8782-7.1709 9.8417 7.1709-3.7684-11.598 9.8783-7.1709h-12.183l-3.7684-11.634zm100.76 0-3.7684 11.634h-12.22l9.8782 7.1343-3.7684 11.634 9.8783-7.1709 9.8782 7.1709-3.7684-11.634 9.8783-7.1343h-12.22l-3.7684-11.634zm-50.379 13.5-3.7684 11.634h-12.22l9.8783 7.1343-3.7684 11.634 9.8782-7.1709 9.8782 7.1709-3.7684-11.634 9.8417-7.1343h-12.183l-3.7684-11.634z" fill="#fc0"/>
 </g>
</svg>
